solid OpenSCAD_Model
  facet normal -1.000000 -0.000000 -0.000000
    outer loop
      vertex -13.700000 0.000000 0.000000
      vertex -13.700000 0.000000 25.400000
      vertex -13.700000 2.000000 0.000000
    endloop
  endfacet
  facet normal -1.000000 0.000000 0.000000
    outer loop
      vertex -13.700000 2.000000 0.000000
      vertex -13.700000 0.000000 25.400000
      vertex -13.700000 2.000000 25.400000
    endloop
  endfacet
  facet normal 0.000000 -1.000000 0.000000
    outer loop
      vertex -13.700000 0.000000 25.400000
      vertex -13.700000 0.000000 0.000000
      vertex 13.700000 0.000000 0.000000
    endloop
  endfacet
  facet normal 0.000000 -1.000000 0.000000
    outer loop
      vertex 13.700000 0.000000 25.400000
      vertex -13.700000 0.000000 25.400000
      vertex 13.700000 0.000000 0.000000
    endloop
  endfacet
  facet normal -0.000000 -0.000000 -1.000000
    outer loop
      vertex -13.700000 0.000000 0.000000
      vertex -13.700000 2.000000 0.000000
      vertex 13.700000 0.000000 0.000000
    endloop
  endfacet
  facet normal 0.000000 0.000000 -1.000000
    outer loop
      vertex 13.700000 0.000000 0.000000
      vertex -13.700000 2.000000 0.000000
      vertex -1.000000 2.000000 0.000000
    endloop
  endfacet
  facet normal 0.000000 0.000000 -1.000000
    outer loop
      vertex 1.000000 2.000000 0.000000
      vertex -1.000000 2.000000 0.000000
      vertex -1.000000 6.750000 0.000000
    endloop
  endfacet
  facet normal 0.000000 0.000000 -1.000000
    outer loop
      vertex -1.000000 6.750000 0.000000
      vertex -13.700000 6.750000 0.000000
      vertex -13.700000 9.000000 0.000000
    endloop
  endfacet
  facet normal 0.000000 -0.000000 -1.000000
    outer loop
      vertex -1.000000 6.750000 0.000000
      vertex -13.700000 9.000000 0.000000
      vertex 13.700000 9.000000 0.000000
    endloop
  endfacet
  facet normal -0.000000 0.000000 -1.000000
    outer loop
      vertex 1.000000 6.750000 0.000000
      vertex 13.700000 9.000000 0.000000
      vertex 13.700000 6.750000 0.000000
    endloop
  endfacet
  facet normal -0.000000 0.000000 -1.000000
    outer loop
      vertex -1.000000 6.750000 0.000000
      vertex 13.700000 9.000000 0.000000
      vertex 1.000000 6.750000 0.000000
    endloop
  endfacet
  facet normal 0.000000 0.000000 -1.000000
    outer loop
      vertex 13.700000 0.000000 0.000000
      vertex -1.000000 2.000000 0.000000
      vertex 1.000000 2.000000 0.000000
    endloop
  endfacet
  facet normal 0.000000 0.000000 -1.000000
    outer loop
      vertex 13.700000 2.000000 0.000000
      vertex 13.700000 0.000000 0.000000
      vertex 1.000000 2.000000 0.000000
    endloop
  endfacet
  facet normal 0.000000 0.000000 -1.000000
    outer loop
      vertex 1.000000 2.000000 0.000000
      vertex -1.000000 6.750000 0.000000
      vertex 1.000000 6.750000 0.000000
    endloop
  endfacet
  facet normal 0.000000 1.000000 0.000000
    outer loop
      vertex -13.700000 2.000000 0.000000
      vertex -13.700000 2.000000 25.400000
      vertex -1.000000 2.000000 0.000000
    endloop
  endfacet
  facet normal 0.000000 1.000000 0.000000
    outer loop
      vertex -1.000000 2.000000 0.000000
      vertex -13.700000 2.000000 25.400000
      vertex -1.000000 2.000000 25.400000
    endloop
  endfacet
  facet normal 0.000000 -0.000000 1.000000
    outer loop
      vertex -13.700000 2.000000 25.400000
      vertex -13.700000 0.000000 25.400000
      vertex 13.700000 0.000000 25.400000
    endloop
  endfacet
  facet normal 0.000000 -0.000000 1.000000
    outer loop
      vertex -1.000000 2.000000 25.400000
      vertex -13.700000 2.000000 25.400000
      vertex 13.700000 0.000000 25.400000
    endloop
  endfacet
  facet normal 0.000000 -0.000000 1.000000
    outer loop
      vertex 1.000000 2.000000 25.400000
      vertex -1.000000 2.000000 25.400000
      vertex 13.700000 0.000000 25.400000
    endloop
  endfacet
  facet normal 0.000000 0.000000 1.000000
    outer loop
      vertex 13.700000 2.000000 25.400000
      vertex 1.000000 2.000000 25.400000
      vertex 13.700000 0.000000 25.400000
    endloop
  endfacet
  facet normal -0.000000 0.000000 1.000000
    outer loop
      vertex 13.700000 6.750000 25.400000
      vertex 13.700000 9.000000 25.400000
      vertex 1.000000 6.750000 25.400000
    endloop
  endfacet
  facet normal 0.000000 0.000000 1.000000
    outer loop
      vertex 13.700000 9.000000 25.400000
      vertex -13.700000 9.000000 25.400000
      vertex 1.000000 6.750000 25.400000
    endloop
  endfacet
  facet normal -0.000000 0.000000 1.000000
    outer loop
      vertex -1.000000 6.750000 25.400000
      vertex -13.700000 9.000000 25.400000
      vertex -13.700000 6.750000 25.400000
    endloop
  endfacet
  facet normal -0.000000 0.000000 1.000000
    outer loop
      vertex 1.000000 6.750000 25.400000
      vertex -13.700000 9.000000 25.400000
      vertex -1.000000 6.750000 25.400000
    endloop
  endfacet
  facet normal 0.000000 0.000000 1.000000
    outer loop
      vertex 1.000000 6.750000 25.400000
      vertex -1.000000 2.000000 25.400000
      vertex 1.000000 2.000000 25.400000
    endloop
  endfacet
  facet normal 0.000000 -0.000000 1.000000
    outer loop
      vertex -1.000000 6.750000 25.400000
      vertex -1.000000 2.000000 25.400000
      vertex 1.000000 6.750000 25.400000
    endloop
  endfacet
  facet normal 1.000000 0.000000 -0.000000
    outer loop
      vertex 13.700000 0.000000 25.400000
      vertex 13.700000 0.000000 0.000000
      vertex 13.700000 2.000000 0.000000
    endloop
  endfacet
  facet normal 1.000000 0.000000 0.000000
    outer loop
      vertex 13.700000 2.000000 25.400000
      vertex 13.700000 0.000000 25.400000
      vertex 13.700000 2.000000 0.000000
    endloop
  endfacet
  facet normal 0.000000 1.000000 0.000000
    outer loop
      vertex 1.000000 2.000000 0.000000
      vertex 1.000000 2.000000 25.400000
      vertex 13.700000 2.000000 0.000000
    endloop
  endfacet
  facet normal 0.000000 1.000000 0.000000
    outer loop
      vertex 13.700000 2.000000 0.000000
      vertex 1.000000 2.000000 25.400000
      vertex 13.700000 2.000000 25.400000
    endloop
  endfacet
  facet normal 1.000000 0.000000 -0.000000
    outer loop
      vertex 1.000000 2.000000 25.400000
      vertex 1.000000 2.000000 0.000000
      vertex 1.000000 6.750000 0.000000
    endloop
  endfacet
  facet normal 1.000000 0.000000 0.000000
    outer loop
      vertex 1.000000 6.750000 25.400000
      vertex 1.000000 2.000000 25.400000
      vertex 1.000000 6.750000 0.000000
    endloop
  endfacet
  facet normal 0.000000 -1.000000 0.000000
    outer loop
      vertex 1.000000 6.750000 25.400000
      vertex 1.000000 6.750000 0.000000
      vertex 13.700000 6.750000 0.000000
    endloop
  endfacet
  facet normal 0.000000 -1.000000 0.000000
    outer loop
      vertex 13.700000 6.750000 25.400000
      vertex 1.000000 6.750000 25.400000
      vertex 13.700000 6.750000 0.000000
    endloop
  endfacet
  facet normal 1.000000 0.000000 -0.000000
    outer loop
      vertex 13.700000 6.750000 25.400000
      vertex 13.700000 6.750000 0.000000
      vertex 13.700000 9.000000 0.000000
    endloop
  endfacet
  facet normal 1.000000 0.000000 0.000000
    outer loop
      vertex 13.700000 9.000000 25.400000
      vertex 13.700000 6.750000 25.400000
      vertex 13.700000 9.000000 0.000000
    endloop
  endfacet
  facet normal 0.000000 1.000000 0.000000
    outer loop
      vertex -13.700000 9.000000 0.000000
      vertex -13.700000 9.000000 25.400000
      vertex 13.700000 9.000000 0.000000
    endloop
  endfacet
  facet normal 0.000000 1.000000 0.000000
    outer loop
      vertex 13.700000 9.000000 0.000000
      vertex -13.700000 9.000000 25.400000
      vertex 13.700000 9.000000 25.400000
    endloop
  endfacet
  facet normal -1.000000 -0.000000 -0.000000
    outer loop
      vertex -13.700000 6.750000 0.000000
      vertex -13.700000 6.750000 25.400000
      vertex -13.700000 9.000000 0.000000
    endloop
  endfacet
  facet normal -1.000000 0.000000 0.000000
    outer loop
      vertex -13.700000 9.000000 0.000000
      vertex -13.700000 6.750000 25.400000
      vertex -13.700000 9.000000 25.400000
    endloop
  endfacet
  facet normal 0.000000 -1.000000 0.000000
    outer loop
      vertex -13.700000 6.750000 25.400000
      vertex -13.700000 6.750000 0.000000
      vertex -1.000000 6.750000 0.000000
    endloop
  endfacet
  facet normal 0.000000 -1.000000 0.000000
    outer loop
      vertex -1.000000 6.750000 25.400000
      vertex -13.700000 6.750000 25.400000
      vertex -1.000000 6.750000 0.000000
    endloop
  endfacet
  facet normal -1.000000 -0.000000 -0.000000
    outer loop
      vertex -1.000000 2.000000 0.000000
      vertex -1.000000 2.000000 25.400000
      vertex -1.000000 6.750000 0.000000
    endloop
  endfacet
  facet normal -1.000000 0.000000 0.000000
    outer loop
      vertex -1.000000 6.750000 0.000000
      vertex -1.000000 2.000000 25.400000
      vertex -1.000000 6.750000 25.400000
    endloop
  endfacet
endsolid OpenSCAD_Model
