solid OpenSCAD_Model
  facet normal -1.000000 -0.000000 -0.000000
    outer loop
      vertex 0.000000 0.000000 0.000000
      vertex 0.000000 0.000000 15.000000
      vertex 0.000000 14.700000 0.000000
    endloop
  endfacet
  facet normal -1.000000 0.000000 0.000000
    outer loop
      vertex 0.000000 14.700000 0.000000
      vertex 0.000000 0.000000 15.000000
      vertex 0.000000 14.700000 15.000000
    endloop
  endfacet
  facet normal 0.000000 -1.000000 0.000000
    outer loop
      vertex 0.000000 0.000000 15.000000
      vertex 0.000000 0.000000 0.000000
      vertex 23.200000 0.000000 0.000000
    endloop
  endfacet
  facet normal 0.000000 -1.000000 0.000000
    outer loop
      vertex 23.200000 0.000000 15.000000
      vertex 0.000000 0.000000 15.000000
      vertex 23.200000 0.000000 0.000000
    endloop
  endfacet
  facet normal 0.000000 0.000000 -1.000000
    outer loop
      vertex 8.500000 14.700000 0.000000
      vertex 10.500000 8.500000 0.000000
      vertex 10.500000 2.000000 0.000000
    endloop
  endfacet
  facet normal 0.000000 -0.000000 -1.000000
    outer loop
      vertex 0.000000 0.000000 0.000000
      vertex 0.000000 14.700000 0.000000
      vertex 2.000000 2.000000 0.000000
    endloop
  endfacet
  facet normal -0.000000 0.000000 -1.000000
    outer loop
      vertex 0.000000 0.000000 0.000000
      vertex 2.000000 2.000000 0.000000
      vertex 23.200000 0.000000 0.000000
    endloop
  endfacet
  facet normal 0.000000 0.000000 -1.000000
    outer loop
      vertex 23.200000 2.000000 0.000000
      vertex 23.200000 0.000000 0.000000
      vertex 10.500000 2.000000 0.000000
    endloop
  endfacet
  facet normal 0.000000 0.000000 -1.000000
    outer loop
      vertex 2.000000 2.000000 0.000000
      vertex 8.500000 2.000000 0.000000
      vertex 23.200000 0.000000 0.000000
    endloop
  endfacet
  facet normal 0.000000 0.000000 -1.000000
    outer loop
      vertex 10.500000 10.500000 0.000000
      vertex 8.500000 14.700000 0.000000
      vertex 10.500000 14.700000 0.000000
    endloop
  endfacet
  facet normal -0.000000 -0.000000 -1.000000
    outer loop
      vertex 10.500000 8.500000 0.000000
      vertex 10.500000 10.500000 0.000000
      vertex 23.200000 8.500000 0.000000
    endloop
  endfacet
  facet normal 0.000000 0.000000 -1.000000
    outer loop
      vertex 8.500000 14.700000 0.000000
      vertex 10.500000 2.000000 0.000000
      vertex 8.500000 2.000000 0.000000
    endloop
  endfacet
  facet normal 0.000000 0.000000 -1.000000
    outer loop
      vertex 23.200000 10.500000 0.000000
      vertex 23.200000 8.500000 0.000000
      vertex 10.500000 10.500000 0.000000
    endloop
  endfacet
  facet normal 0.000000 0.000000 -1.000000
    outer loop
      vertex 8.500000 14.700000 0.000000
      vertex 10.500000 10.500000 0.000000
      vertex 10.500000 8.500000 0.000000
    endloop
  endfacet
  facet normal 0.000000 0.000000 -1.000000
    outer loop
      vertex 8.500000 2.000000 0.000000
      vertex 10.500000 2.000000 0.000000
      vertex 23.200000 0.000000 0.000000
    endloop
  endfacet
  facet normal 0.000000 0.000000 -1.000000
    outer loop
      vertex 2.000000 2.000000 0.000000
      vertex 0.000000 14.700000 0.000000
      vertex 2.000000 14.700000 0.000000
    endloop
  endfacet
  facet normal 0.000000 1.000000 0.000000
    outer loop
      vertex 0.000000 14.700000 0.000000
      vertex 0.000000 14.700000 15.000000
      vertex 2.000000 14.700000 0.000000
    endloop
  endfacet
  facet normal 0.000000 1.000000 0.000000
    outer loop
      vertex 2.000000 14.700000 0.000000
      vertex 0.000000 14.700000 15.000000
      vertex 2.000000 14.700000 15.000000
    endloop
  endfacet
  facet normal 0.000000 -0.000000 1.000000
    outer loop
      vertex 10.500000 2.000000 15.000000
      vertex 0.000000 0.000000 15.000000
      vertex 23.200000 0.000000 15.000000
    endloop
  endfacet
  facet normal 0.000000 0.000000 1.000000
    outer loop
      vertex 23.200000 10.500000 15.000000
      vertex 10.500000 10.500000 15.000000
      vertex 23.200000 8.500000 15.000000
    endloop
  endfacet
  facet normal 0.000000 -0.000000 1.000000
    outer loop
      vertex 8.500000 2.000000 15.000000
      vertex 0.000000 0.000000 15.000000
      vertex 10.500000 2.000000 15.000000
    endloop
  endfacet
  facet normal 0.000000 0.000000 1.000000
    outer loop
      vertex 10.500000 8.500000 15.000000
      vertex 23.200000 8.500000 15.000000
      vertex 10.500000 10.500000 15.000000
    endloop
  endfacet
  facet normal 0.000000 0.000000 1.000000
    outer loop
      vertex 8.500000 14.700000 15.000000
      vertex 10.500000 8.500000 15.000000
      vertex 10.500000 10.500000 15.000000
    endloop
  endfacet
  facet normal 0.000000 0.000000 1.000000
    outer loop
      vertex 8.500000 14.700000 15.000000
      vertex 10.500000 2.000000 15.000000
      vertex 10.500000 8.500000 15.000000
    endloop
  endfacet
  facet normal 0.000000 -0.000000 1.000000
    outer loop
      vertex 2.000000 2.000000 15.000000
      vertex 0.000000 0.000000 15.000000
      vertex 8.500000 2.000000 15.000000
    endloop
  endfacet
  facet normal 0.000000 -0.000000 1.000000
    outer loop
      vertex 0.000000 14.700000 15.000000
      vertex 0.000000 0.000000 15.000000
      vertex 2.000000 2.000000 15.000000
    endloop
  endfacet
  facet normal 0.000000 0.000000 1.000000
    outer loop
      vertex 2.000000 2.000000 15.000000
      vertex 2.000000 14.700000 15.000000
      vertex 0.000000 14.700000 15.000000
    endloop
  endfacet
  facet normal 0.000000 0.000000 1.000000
    outer loop
      vertex 23.200000 2.000000 15.000000
      vertex 10.500000 2.000000 15.000000
      vertex 23.200000 0.000000 15.000000
    endloop
  endfacet
  facet normal 0.000000 0.000000 1.000000
    outer loop
      vertex 10.500000 10.500000 15.000000
      vertex 10.500000 14.700000 15.000000
      vertex 8.500000 14.700000 15.000000
    endloop
  endfacet
  facet normal 0.000000 -0.000000 1.000000
    outer loop
      vertex 8.500000 14.700000 15.000000
      vertex 8.500000 2.000000 15.000000
      vertex 10.500000 2.000000 15.000000
    endloop
  endfacet
  facet normal 1.000000 0.000000 -0.000000
    outer loop
      vertex 23.200000 0.000000 15.000000
      vertex 23.200000 0.000000 0.000000
      vertex 23.200000 2.000000 0.000000
    endloop
  endfacet
  facet normal 1.000000 0.000000 0.000000
    outer loop
      vertex 23.200000 2.000000 15.000000
      vertex 23.200000 0.000000 15.000000
      vertex 23.200000 2.000000 0.000000
    endloop
  endfacet
  facet normal 0.000000 1.000000 0.000000
    outer loop
      vertex 10.500000 2.000000 0.000000
      vertex 10.500000 2.000000 15.000000
      vertex 23.200000 2.000000 0.000000
    endloop
  endfacet
  facet normal 0.000000 1.000000 0.000000
    outer loop
      vertex 23.200000 2.000000 0.000000
      vertex 10.500000 2.000000 15.000000
      vertex 23.200000 2.000000 15.000000
    endloop
  endfacet
  facet normal 1.000000 0.000000 -0.000000
    outer loop
      vertex 10.500000 2.000000 15.000000
      vertex 10.500000 2.000000 0.000000
      vertex 10.500000 8.500000 0.000000
    endloop
  endfacet
  facet normal 1.000000 0.000000 0.000000
    outer loop
      vertex 10.500000 8.500000 15.000000
      vertex 10.500000 2.000000 15.000000
      vertex 10.500000 8.500000 0.000000
    endloop
  endfacet
  facet normal 0.000000 -1.000000 0.000000
    outer loop
      vertex 10.500000 8.500000 15.000000
      vertex 10.500000 8.500000 0.000000
      vertex 23.200000 8.500000 0.000000
    endloop
  endfacet
  facet normal 0.000000 -1.000000 0.000000
    outer loop
      vertex 23.200000 8.500000 15.000000
      vertex 10.500000 8.500000 15.000000
      vertex 23.200000 8.500000 0.000000
    endloop
  endfacet
  facet normal 1.000000 0.000000 -0.000000
    outer loop
      vertex 23.200000 8.500000 15.000000
      vertex 23.200000 8.500000 0.000000
      vertex 23.200000 10.500000 0.000000
    endloop
  endfacet
  facet normal 1.000000 0.000000 0.000000
    outer loop
      vertex 23.200000 10.500000 15.000000
      vertex 23.200000 8.500000 15.000000
      vertex 23.200000 10.500000 0.000000
    endloop
  endfacet
  facet normal 0.000000 1.000000 0.000000
    outer loop
      vertex 10.500000 10.500000 0.000000
      vertex 10.500000 10.500000 15.000000
      vertex 23.200000 10.500000 0.000000
    endloop
  endfacet
  facet normal 0.000000 1.000000 0.000000
    outer loop
      vertex 23.200000 10.500000 0.000000
      vertex 10.500000 10.500000 15.000000
      vertex 23.200000 10.500000 15.000000
    endloop
  endfacet
  facet normal 1.000000 0.000000 -0.000000
    outer loop
      vertex 10.500000 10.500000 15.000000
      vertex 10.500000 10.500000 0.000000
      vertex 10.500000 14.700000 0.000000
    endloop
  endfacet
  facet normal 1.000000 0.000000 0.000000
    outer loop
      vertex 10.500000 14.700000 15.000000
      vertex 10.500000 10.500000 15.000000
      vertex 10.500000 14.700000 0.000000
    endloop
  endfacet
  facet normal 0.000000 1.000000 0.000000
    outer loop
      vertex 8.500000 14.700000 0.000000
      vertex 8.500000 14.700000 15.000000
      vertex 10.500000 14.700000 0.000000
    endloop
  endfacet
  facet normal 0.000000 1.000000 0.000000
    outer loop
      vertex 10.500000 14.700000 0.000000
      vertex 8.500000 14.700000 15.000000
      vertex 10.500000 14.700000 15.000000
    endloop
  endfacet
  facet normal -1.000000 -0.000000 -0.000000
    outer loop
      vertex 8.500000 2.000000 0.000000
      vertex 8.500000 2.000000 15.000000
      vertex 8.500000 14.700000 0.000000
    endloop
  endfacet
  facet normal -1.000000 0.000000 0.000000
    outer loop
      vertex 8.500000 14.700000 0.000000
      vertex 8.500000 2.000000 15.000000
      vertex 8.500000 14.700000 15.000000
    endloop
  endfacet
  facet normal 0.000000 1.000000 0.000000
    outer loop
      vertex 2.000000 2.000000 0.000000
      vertex 2.000000 2.000000 15.000000
      vertex 8.500000 2.000000 0.000000
    endloop
  endfacet
  facet normal 0.000000 1.000000 0.000000
    outer loop
      vertex 8.500000 2.000000 0.000000
      vertex 2.000000 2.000000 15.000000
      vertex 8.500000 2.000000 15.000000
    endloop
  endfacet
  facet normal 1.000000 0.000000 -0.000000
    outer loop
      vertex 2.000000 2.000000 15.000000
      vertex 2.000000 2.000000 0.000000
      vertex 2.000000 14.700000 0.000000
    endloop
  endfacet
  facet normal 1.000000 0.000000 0.000000
    outer loop
      vertex 2.000000 14.700000 15.000000
      vertex 2.000000 2.000000 15.000000
      vertex 2.000000 14.700000 0.000000
    endloop
  endfacet
endsolid OpenSCAD_Model
