solid OpenSCAD_Model
  facet normal -1.000000 -0.000000 -0.000000
    outer loop
      vertex 0.000000 0.000000 0.000000
      vertex 0.000000 0.000000 15.000000
      vertex 0.000000 14.700000 0.000000
    endloop
  endfacet
  facet normal -1.000000 0.000000 0.000000
    outer loop
      vertex 0.000000 14.700000 0.000000
      vertex 0.000000 0.000000 15.000000
      vertex 0.000000 14.700000 15.000000
    endloop
  endfacet
  facet normal 0.000000 -1.000000 0.000000
    outer loop
      vertex 1.875000 0.000000 2.250000
      vertex 0.000000 0.000000 0.000000
      vertex 9.000000 0.000000 0.000000
    endloop
  endfacet
  facet normal 0.000000 -1.000000 0.000000
    outer loop
      vertex 7.000000 0.000000 2.250000
      vertex 1.875000 0.000000 2.250000
      vertex 9.000000 0.000000 0.000000
    endloop
  endfacet
  facet normal 0.000000 -1.000000 0.000000
    outer loop
      vertex 0.000000 0.000000 15.000000
      vertex 0.000000 0.000000 0.000000
      vertex 1.875000 0.000000 2.250000
    endloop
  endfacet
  facet normal 0.000000 -1.000000 0.000000
    outer loop
      vertex 9.000000 0.000000 15.000000
      vertex 0.000000 0.000000 15.000000
      vertex 1.875000 0.000000 12.250000
    endloop
  endfacet
  facet normal 0.000000 -1.000000 0.000000
    outer loop
      vertex 9.000000 0.000000 15.000000
      vertex 7.000000 0.000000 12.250000
      vertex 9.000000 0.000000 0.000000
    endloop
  endfacet
  facet normal 0.000000 -1.000000 0.000000
    outer loop
      vertex 9.000000 0.000000 15.000000
      vertex 1.875000 0.000000 12.250000
      vertex 7.000000 0.000000 12.250000
    endloop
  endfacet
  facet normal 0.000000 -1.000000 0.000000
    outer loop
      vertex 7.000000 0.000000 12.250000
      vertex 7.000000 0.000000 2.250000
      vertex 9.000000 0.000000 0.000000
    endloop
  endfacet
  facet normal 0.000000 -1.000000 0.000000
    outer loop
      vertex 1.875000 0.000000 2.250000
      vertex 1.875000 0.000000 12.250000
      vertex 0.000000 0.000000 15.000000
    endloop
  endfacet
  facet normal 0.000000 -0.000000 -1.000000
    outer loop
      vertex 0.000000 0.000000 0.000000
      vertex 0.000000 14.700000 0.000000
      vertex 2.000000 2.000000 0.000000
    endloop
  endfacet
  facet normal -0.000000 0.000000 -1.000000
    outer loop
      vertex 0.000000 0.000000 0.000000
      vertex 2.000000 2.000000 0.000000
      vertex 9.000000 0.000000 0.000000
    endloop
  endfacet
  facet normal 0.000000 0.000000 -1.000000
    outer loop
      vertex 7.000000 14.700000 0.000000
      vertex 9.000000 0.000000 0.000000
      vertex 7.000000 2.000000 0.000000
    endloop
  endfacet
  facet normal 0.000000 0.000000 -1.000000
    outer loop
      vertex 2.000000 2.000000 0.000000
      vertex 7.000000 2.000000 0.000000
      vertex 9.000000 0.000000 0.000000
    endloop
  endfacet
  facet normal 0.000000 0.000000 -1.000000
    outer loop
      vertex 9.000000 0.000000 0.000000
      vertex 7.000000 14.700000 0.000000
      vertex 9.000000 14.700000 0.000000
    endloop
  endfacet
  facet normal 0.000000 0.000000 -1.000000
    outer loop
      vertex 2.000000 2.000000 0.000000
      vertex 0.000000 14.700000 0.000000
      vertex 2.000000 14.700000 0.000000
    endloop
  endfacet
  facet normal 0.000000 1.000000 0.000000
    outer loop
      vertex 0.000000 14.700000 0.000000
      vertex 0.000000 14.700000 15.000000
      vertex 2.000000 14.700000 0.000000
    endloop
  endfacet
  facet normal 0.000000 1.000000 0.000000
    outer loop
      vertex 2.000000 14.700000 0.000000
      vertex 0.000000 14.700000 15.000000
      vertex 2.000000 14.700000 15.000000
    endloop
  endfacet
  facet normal 0.000000 -0.000000 1.000000
    outer loop
      vertex 7.000000 2.000000 15.000000
      vertex 0.000000 0.000000 15.000000
      vertex 9.000000 0.000000 15.000000
    endloop
  endfacet
  facet normal 0.000000 0.000000 1.000000
    outer loop
      vertex 2.000000 2.000000 15.000000
      vertex 2.000000 14.700000 15.000000
      vertex 0.000000 14.700000 15.000000
    endloop
  endfacet
  facet normal 0.000000 0.000000 1.000000
    outer loop
      vertex 9.000000 14.700000 15.000000
      vertex 7.000000 14.700000 15.000000
      vertex 9.000000 0.000000 15.000000
    endloop
  endfacet
  facet normal 0.000000 -0.000000 1.000000
    outer loop
      vertex 2.000000 2.000000 15.000000
      vertex 0.000000 0.000000 15.000000
      vertex 7.000000 2.000000 15.000000
    endloop
  endfacet
  facet normal 0.000000 -0.000000 1.000000
    outer loop
      vertex 0.000000 14.700000 15.000000
      vertex 0.000000 0.000000 15.000000
      vertex 2.000000 2.000000 15.000000
    endloop
  endfacet
  facet normal 0.000000 -0.000000 1.000000
    outer loop
      vertex 7.000000 14.700000 15.000000
      vertex 7.000000 2.000000 15.000000
      vertex 9.000000 0.000000 15.000000
    endloop
  endfacet
  facet normal 1.000000 0.000000 -0.000000
    outer loop
      vertex 9.000000 0.000000 15.000000
      vertex 9.000000 0.000000 0.000000
      vertex 9.000000 14.700000 0.000000
    endloop
  endfacet
  facet normal 1.000000 0.000000 0.000000
    outer loop
      vertex 9.000000 14.700000 15.000000
      vertex 9.000000 0.000000 15.000000
      vertex 9.000000 14.700000 0.000000
    endloop
  endfacet
  facet normal -1.000000 -0.000000 -0.000000
    outer loop
      vertex 1.875000 -4.750000 2.250000
      vertex 1.875000 -4.750000 12.250000
      vertex 1.875000 0.000000 2.250000
    endloop
  endfacet
  facet normal -1.000000 0.000000 0.000000
    outer loop
      vertex 1.875000 0.000000 2.250000
      vertex 1.875000 -4.750000 12.250000
      vertex 1.875000 0.000000 12.250000
    endloop
  endfacet
  facet normal -0.000000 -0.000000 -1.000000
    outer loop
      vertex 1.875000 -4.750000 2.250000
      vertex 1.875000 0.000000 2.250000
      vertex 7.000000 -4.750000 2.250000
    endloop
  endfacet
  facet normal 0.000000 0.000000 -1.000000
    outer loop
      vertex 7.000000 -4.750000 2.250000
      vertex 1.875000 0.000000 2.250000
      vertex 7.000000 0.000000 2.250000
    endloop
  endfacet
  facet normal 1.000000 0.000000 -0.000000
    outer loop
      vertex 7.000000 -4.750000 12.250000
      vertex 7.000000 -4.750000 2.250000
      vertex 7.000000 0.000000 2.250000
    endloop
  endfacet
  facet normal 1.000000 0.000000 0.000000
    outer loop
      vertex 7.000000 0.000000 12.250000
      vertex 7.000000 -4.750000 12.250000
      vertex 7.000000 0.000000 2.250000
    endloop
  endfacet
  facet normal 0.000000 -0.000000 1.000000
    outer loop
      vertex 1.875000 0.000000 12.250000
      vertex 1.875000 -4.750000 12.250000
      vertex 7.000000 -4.750000 12.250000
    endloop
  endfacet
  facet normal 0.000000 0.000000 1.000000
    outer loop
      vertex 7.000000 0.000000 12.250000
      vertex 1.875000 0.000000 12.250000
      vertex 7.000000 -4.750000 12.250000
    endloop
  endfacet
  facet normal 0.000000 1.000000 0.000000
    outer loop
      vertex 7.000000 14.700000 0.000000
      vertex 7.000000 14.700000 15.000000
      vertex 9.000000 14.700000 0.000000
    endloop
  endfacet
  facet normal 0.000000 1.000000 0.000000
    outer loop
      vertex 9.000000 14.700000 0.000000
      vertex 7.000000 14.700000 15.000000
      vertex 9.000000 14.700000 15.000000
    endloop
  endfacet
  facet normal -1.000000 -0.000000 -0.000000
    outer loop
      vertex 7.000000 2.000000 0.000000
      vertex 7.000000 2.000000 15.000000
      vertex 7.000000 14.700000 0.000000
    endloop
  endfacet
  facet normal -1.000000 0.000000 0.000000
    outer loop
      vertex 7.000000 14.700000 0.000000
      vertex 7.000000 2.000000 15.000000
      vertex 7.000000 14.700000 15.000000
    endloop
  endfacet
  facet normal 0.000000 1.000000 0.000000
    outer loop
      vertex 2.000000 2.000000 0.000000
      vertex 2.000000 2.000000 15.000000
      vertex 7.000000 2.000000 0.000000
    endloop
  endfacet
  facet normal 0.000000 1.000000 0.000000
    outer loop
      vertex 7.000000 2.000000 0.000000
      vertex 2.000000 2.000000 15.000000
      vertex 7.000000 2.000000 15.000000
    endloop
  endfacet
  facet normal 1.000000 0.000000 -0.000000
    outer loop
      vertex 2.000000 2.000000 15.000000
      vertex 2.000000 2.000000 0.000000
      vertex 2.000000 14.700000 0.000000
    endloop
  endfacet
  facet normal 1.000000 0.000000 0.000000
    outer loop
      vertex 2.000000 14.700000 15.000000
      vertex 2.000000 2.000000 15.000000
      vertex 2.000000 14.700000 0.000000
    endloop
  endfacet
  facet normal 0.000000 -1.000000 0.000000
    outer loop
      vertex 1.875000 -4.750000 12.250000
      vertex 1.875000 -4.750000 2.250000
      vertex 7.000000 -4.750000 2.250000
    endloop
  endfacet
  facet normal 0.000000 -1.000000 0.000000
    outer loop
      vertex 7.000000 -4.750000 12.250000
      vertex 1.875000 -4.750000 12.250000
      vertex 7.000000 -4.750000 2.250000
    endloop
  endfacet
endsolid OpenSCAD_Model
