  0
SECTION
  2
ENTITIES
  0
LINE
 10
-27.000000
 11
-26.714000
 20
-25.500000
 21
-24.618000
  0
LINE
 10
-26.714000
 11
-25.964000
 20
-24.618000
 21
-24.073000
  0
LINE
 10
-25.964000
 11
-25.036000
 20
-24.073000
 21
-24.073000
  0
LINE
 10
-25.036000
 11
-24.286000
 20
-24.073000
 21
-24.618000
  0
LINE
 10
-24.286000
 11
-24.000000
 20
-24.618000
 21
-25.500000
  0
LINE
 10
-24.000000
 11
-24.286000
 20
-25.500000
 21
-26.382000
  0
LINE
 10
-24.286000
 11
-25.036000
 20
-26.382000
 21
-26.927000
  0
LINE
 10
-25.036000
 11
-25.964000
 20
-26.927000
 21
-26.927000
  0
LINE
 10
-25.964000
 11
-26.714000
 20
-26.927000
 21
-26.382000
  0
LINE
 10
-26.714000
 11
-27.000000
 20
-26.382000
 21
-25.500000
  0
LINE
 10
-27.000000
 11
-26.714000
 20
25.500000
 21
26.382000
  0
LINE
 10
-26.714000
 11
-25.964000
 20
26.382000
 21
26.927000
  0
LINE
 10
-25.964000
 11
-25.036000
 20
26.927000
 21
26.927000
  0
LINE
 10
-25.036000
 11
-24.286000
 20
26.927000
 21
26.382000
  0
LINE
 10
-24.286000
 11
-24.000000
 20
26.382000
 21
25.500000
  0
LINE
 10
-24.000000
 11
-24.286000
 20
25.500000
 21
24.618000
  0
LINE
 10
-24.286000
 11
-25.036000
 20
24.618000
 21
24.073000
  0
LINE
 10
-25.036000
 11
-25.964000
 20
24.073000
 21
24.073000
  0
LINE
 10
-25.964000
 11
-26.714000
 20
24.073000
 21
24.618000
  0
LINE
 10
-26.714000
 11
-27.000000
 20
24.618000
 21
25.500000
  0
LINE
 10
-31.500000
 11
-31.500000
 20
-31.500000
 21
-20.750000
  0
LINE
 10
-31.500000
 11
-24.000000
 20
-20.750000
 21
-20.750000
  0
LINE
 10
-24.000000
 11
-24.000000
 20
-20.750000
 21
-19.250000
  0
LINE
 10
-24.000000
 11
-31.500000
 20
-19.250000
 21
-19.250000
  0
LINE
 10
-31.500000
 11
-31.500000
 20
-19.250000
 21
-16.750000
  0
LINE
 10
-31.500000
 11
-30.906000
 20
-16.750000
 21
-16.750000
  0
LINE
 10
-30.906000
 11
-30.799000
 20
-16.750000
 21
-16.419000
  0
LINE
 10
-30.799000
 11
-30.305000
 20
-16.419000
 21
-16.061000
  0
LINE
 10
-30.305000
 11
-29.695000
 20
-16.061000
 21
-16.061000
  0
LINE
 10
-29.695000
 11
-29.201000
 20
-16.061000
 21
-16.419000
  0
LINE
 10
-29.201000
 11
-29.094000
 20
-16.419000
 21
-16.750000
  0
LINE
 10
-29.094000
 11
-24.000000
 20
-16.750000
 21
-16.750000
  0
LINE
 10
-24.000000
 11
-24.000000
 20
-16.750000
 21
-15.250000
  0
LINE
 10
-24.000000
 11
-27.000000
 20
-15.250000
 21
-15.250000
  0
LINE
 10
-27.000000
 11
-27.000000
 20
-15.250000
 21
-2.000000
  0
LINE
 10
-27.000000
 11
-16.000000
 20
-2.000000
 21
-2.000000
  0
LINE
 10
-16.000000
 11
-16.000000
 20
-2.000000
 21
2.000000
  0
LINE
 10
-16.000000
 11
-27.000000
 20
2.000000
 21
2.000000
  0
LINE
 10
-27.000000
 11
-27.000000
 20
2.000000
 21
15.250000
  0
LINE
 10
-27.000000
 11
-24.000000
 20
15.250000
 21
15.250000
  0
LINE
 10
-24.000000
 11
-24.000000
 20
15.250000
 21
16.750000
  0
LINE
 10
-24.000000
 11
-29.094000
 20
16.750000
 21
16.750000
  0
LINE
 10
-29.094000
 11
-29.201000
 20
16.750000
 21
16.419000
  0
LINE
 10
-29.201000
 11
-29.695000
 20
16.419000
 21
16.061000
  0
LINE
 10
-29.695000
 11
-30.305000
 20
16.061000
 21
16.061000
  0
LINE
 10
-30.305000
 11
-30.799000
 20
16.061000
 21
16.419000
  0
LINE
 10
-30.799000
 11
-30.906000
 20
16.419000
 21
16.750000
  0
LINE
 10
-30.906000
 11
-31.500000
 20
16.750000
 21
16.750000
  0
LINE
 10
-31.500000
 11
-31.500000
 20
16.750000
 21
19.250000
  0
LINE
 10
-31.500000
 11
-24.000000
 20
19.250000
 21
19.250000
  0
LINE
 10
-24.000000
 11
-24.000000
 20
19.250000
 21
20.750000
  0
LINE
 10
-24.000000
 11
-31.500000
 20
20.750000
 21
20.750000
  0
LINE
 10
-31.500000
 11
-31.500000
 20
20.750000
 21
31.500000
  0
LINE
 10
-31.500000
 11
-20.750000
 20
31.500000
 21
31.500000
  0
LINE
 10
-20.750000
 11
-20.750000
 20
31.500000
 21
24.000000
  0
LINE
 10
-20.750000
 11
-19.250000
 20
24.000000
 21
24.000000
  0
LINE
 10
-19.250000
 11
-19.250000
 20
24.000000
 21
31.500000
  0
LINE
 10
-19.250000
 11
-16.750000
 20
31.500000
 21
31.500000
  0
LINE
 10
-16.750000
 11
-16.750000
 20
31.500000
 21
30.939000
  0
LINE
 10
-16.750000
 11
-16.695000
 20
30.939000
 21
30.939000
  0
LINE
 10
-16.695000
 11
-16.201000
 20
30.939000
 21
30.581000
  0
LINE
 10
-16.201000
 11
-16.012000
 20
30.581000
 21
30.000000
  0
LINE
 10
-16.012000
 11
-16.201000
 20
30.000000
 21
29.419000
  0
LINE
 10
-16.201000
 11
-16.695000
 20
29.419000
 21
29.061000
  0
LINE
 10
-16.695000
 11
-16.750000
 20
29.061000
 21
29.061000
  0
LINE
 10
-16.750000
 11
-16.750000
 20
29.061000
 21
24.000000
  0
LINE
 10
-16.750000
 11
-15.250000
 20
24.000000
 21
24.000000
  0
LINE
 10
-15.250000
 11
-15.250000
 20
24.000000
 21
27.000000
  0
LINE
 10
-15.250000
 11
-2.000000
 20
27.000000
 21
27.000000
  0
LINE
 10
-2.000000
 11
-2.000000
 20
27.000000
 21
16.000000
  0
LINE
 10
-2.000000
 11
2.000000
 20
16.000000
 21
16.000000
  0
LINE
 10
2.000000
 11
2.000000
 20
16.000000
 21
27.000000
  0
LINE
 10
2.000000
 11
15.250000
 20
27.000000
 21
27.000000
  0
LINE
 10
15.250000
 11
15.250000
 20
27.000000
 21
24.000000
  0
LINE
 10
15.250000
 11
16.750000
 20
24.000000
 21
24.000000
  0
LINE
 10
16.750000
 11
16.750000
 20
24.000000
 21
29.061000
  0
LINE
 10
16.750000
 11
16.695000
 20
29.061000
 21
29.061000
  0
LINE
 10
16.695000
 11
16.201000
 20
29.061000
 21
29.419000
  0
LINE
 10
16.201000
 11
16.012000
 20
29.419000
 21
30.000000
  0
LINE
 10
16.012000
 11
16.201000
 20
30.000000
 21
30.581000
  0
LINE
 10
16.201000
 11
16.695000
 20
30.581000
 21
30.939000
  0
LINE
 10
16.695000
 11
16.750000
 20
30.939000
 21
30.939000
  0
LINE
 10
16.750000
 11
16.750000
 20
30.939000
 21
31.500000
  0
LINE
 10
16.750000
 11
19.250000
 20
31.500000
 21
31.500000
  0
LINE
 10
19.250000
 11
19.250000
 20
31.500000
 21
24.000000
  0
LINE
 10
19.250000
 11
20.750000
 20
24.000000
 21
24.000000
  0
LINE
 10
20.750000
 11
20.750000
 20
24.000000
 21
31.500000
  0
LINE
 10
20.750000
 11
31.500000
 20
31.500000
 21
31.500000
  0
LINE
 10
31.500000
 11
31.500000
 20
31.500000
 21
20.750000
  0
LINE
 10
31.500000
 11
24.000000
 20
20.750000
 21
20.750000
  0
LINE
 10
24.000000
 11
24.000000
 20
20.750000
 21
19.250000
  0
LINE
 10
24.000000
 11
31.500000
 20
19.250000
 21
19.250000
  0
LINE
 10
31.500000
 11
31.500000
 20
19.250000
 21
16.750000
  0
LINE
 10
31.500000
 11
30.906000
 20
16.750000
 21
16.750000
  0
LINE
 10
30.906000
 11
30.799000
 20
16.750000
 21
16.419000
  0
LINE
 10
30.799000
 11
30.305000
 20
16.419000
 21
16.061000
  0
LINE
 10
30.305000
 11
29.695000
 20
16.061000
 21
16.061000
  0
LINE
 10
29.695000
 11
29.201000
 20
16.061000
 21
16.419000
  0
LINE
 10
29.201000
 11
29.094000
 20
16.419000
 21
16.750000
  0
LINE
 10
29.094000
 11
24.000000
 20
16.750000
 21
16.750000
  0
LINE
 10
24.000000
 11
24.000000
 20
16.750000
 21
15.250000
  0
LINE
 10
24.000000
 11
27.000000
 20
15.250000
 21
15.250000
  0
LINE
 10
27.000000
 11
27.000000
 20
15.250000
 21
2.000000
  0
LINE
 10
27.000000
 11
16.000000
 20
2.000000
 21
2.000000
  0
LINE
 10
16.000000
 11
16.000000
 20
2.000000
 21
-2.000000
  0
LINE
 10
16.000000
 11
27.000000
 20
-2.000000
 21
-2.000000
  0
LINE
 10
27.000000
 11
27.000000
 20
-2.000000
 21
-15.250000
  0
LINE
 10
27.000000
 11
24.000000
 20
-15.250000
 21
-15.250000
  0
LINE
 10
24.000000
 11
24.000000
 20
-15.250000
 21
-16.750000
  0
LINE
 10
24.000000
 11
29.094000
 20
-16.750000
 21
-16.750000
  0
LINE
 10
29.094000
 11
29.201000
 20
-16.750000
 21
-16.419000
  0
LINE
 10
29.201000
 11
29.695000
 20
-16.419000
 21
-16.061000
  0
LINE
 10
29.695000
 11
30.305000
 20
-16.061000
 21
-16.061000
  0
LINE
 10
30.305000
 11
30.799000
 20
-16.061000
 21
-16.419000
  0
LINE
 10
30.799000
 11
30.906000
 20
-16.419000
 21
-16.750000
  0
LINE
 10
30.906000
 11
31.500000
 20
-16.750000
 21
-16.750000
  0
LINE
 10
31.500000
 11
31.500000
 20
-16.750000
 21
-19.250000
  0
LINE
 10
31.500000
 11
24.000000
 20
-19.250000
 21
-19.250000
  0
LINE
 10
24.000000
 11
24.000000
 20
-19.250000
 21
-20.750000
  0
LINE
 10
24.000000
 11
31.500000
 20
-20.750000
 21
-20.750000
  0
LINE
 10
31.500000
 11
31.500000
 20
-20.750000
 21
-31.500000
  0
LINE
 10
31.500000
 11
20.750000
 20
-31.500000
 21
-31.500000
  0
LINE
 10
20.750000
 11
20.750000
 20
-31.500000
 21
-24.000000
  0
LINE
 10
20.750000
 11
19.250000
 20
-24.000000
 21
-24.000000
  0
LINE
 10
19.250000
 11
19.250000
 20
-24.000000
 21
-31.500000
  0
LINE
 10
19.250000
 11
16.750000
 20
-31.500000
 21
-31.500000
  0
LINE
 10
16.750000
 11
16.750000
 20
-31.500000
 21
-30.939000
  0
LINE
 10
16.750000
 11
16.695000
 20
-30.939000
 21
-30.939000
  0
LINE
 10
16.695000
 11
16.201000
 20
-30.939000
 21
-30.581000
  0
LINE
 10
16.201000
 11
16.012000
 20
-30.581000
 21
-30.000000
  0
LINE
 10
16.012000
 11
16.201000
 20
-30.000000
 21
-29.419000
  0
LINE
 10
16.201000
 11
16.695000
 20
-29.419000
 21
-29.061000
  0
LINE
 10
16.695000
 11
16.750000
 20
-29.061000
 21
-29.061000
  0
LINE
 10
16.750000
 11
16.750000
 20
-29.061000
 21
-24.000000
  0
LINE
 10
16.750000
 11
15.250000
 20
-24.000000
 21
-24.000000
  0
LINE
 10
15.250000
 11
15.250000
 20
-24.000000
 21
-27.000000
  0
LINE
 10
15.250000
 11
2.000000
 20
-27.000000
 21
-27.000000
  0
LINE
 10
2.000000
 11
2.000000
 20
-27.000000
 21
-16.000000
  0
LINE
 10
2.000000
 11
-2.000000
 20
-16.000000
 21
-16.000000
  0
LINE
 10
-2.000000
 11
-2.000000
 20
-16.000000
 21
-27.000000
  0
LINE
 10
-2.000000
 11
-15.250000
 20
-27.000000
 21
-27.000000
  0
LINE
 10
-15.250000
 11
-15.250000
 20
-27.000000
 21
-24.000000
  0
LINE
 10
-15.250000
 11
-16.750000
 20
-24.000000
 21
-24.000000
  0
LINE
 10
-16.750000
 11
-16.750000
 20
-24.000000
 21
-29.061000
  0
LINE
 10
-16.750000
 11
-16.695000
 20
-29.061000
 21
-29.061000
  0
LINE
 10
-16.695000
 11
-16.201000
 20
-29.061000
 21
-29.419000
  0
LINE
 10
-16.201000
 11
-16.012000
 20
-29.419000
 21
-30.000000
  0
LINE
 10
-16.012000
 11
-16.201000
 20
-30.000000
 21
-30.581000
  0
LINE
 10
-16.201000
 11
-16.695000
 20
-30.581000
 21
-30.939000
  0
LINE
 10
-16.695000
 11
-16.750000
 20
-30.939000
 21
-30.939000
  0
LINE
 10
-16.750000
 11
-16.750000
 20
-30.939000
 21
-31.500000
  0
LINE
 10
-16.750000
 11
-19.250000
 20
-31.500000
 21
-31.500000
  0
LINE
 10
-19.250000
 11
-19.250000
 20
-31.500000
 21
-24.000000
  0
LINE
 10
-19.250000
 11
-20.750000
 20
-24.000000
 21
-24.000000
  0
LINE
 10
-20.750000
 11
-20.750000
 20
-24.000000
 21
-31.500000
  0
LINE
 10
-20.750000
 11
-31.500000
 20
-31.500000
 21
-31.500000
  0
LINE
 10
-18.650000
 11
-17.953000
 20
-15.000000
 21
-12.855000
  0
LINE
 10
-17.953000
 11
-16.128000
 20
-12.855000
 21
-11.529000
  0
LINE
 10
-16.128000
 11
-13.872000
 20
-11.529000
 21
-11.529000
  0
LINE
 10
-13.872000
 11
-12.047000
 20
-11.529000
 21
-12.855000
  0
LINE
 10
-12.047000
 11
-11.350000
 20
-12.855000
 21
-15.000000
  0
LINE
 10
-11.350000
 11
-12.047000
 20
-15.000000
 21
-17.145000
  0
LINE
 10
-12.047000
 11
-13.872000
 20
-17.145000
 21
-18.471000
  0
LINE
 10
-13.872000
 11
-16.128000
 20
-18.471000
 21
-18.471000
  0
LINE
 10
-16.128000
 11
-17.953000
 20
-18.471000
 21
-17.145000
  0
LINE
 10
-17.953000
 11
-18.650000
 20
-17.145000
 21
-15.000000
  0
LINE
 10
-18.650000
 11
-17.953000
 20
15.000000
 21
17.145000
  0
LINE
 10
-17.953000
 11
-16.128000
 20
17.145000
 21
18.471000
  0
LINE
 10
-16.128000
 11
-13.872000
 20
18.471000
 21
18.471000
  0
LINE
 10
-13.872000
 11
-12.047000
 20
18.471000
 21
17.145000
  0
LINE
 10
-12.047000
 11
-11.350000
 20
17.145000
 21
15.000000
  0
LINE
 10
-11.350000
 11
-12.047000
 20
15.000000
 21
12.855000
  0
LINE
 10
-12.047000
 11
-13.872000
 20
12.855000
 21
11.529000
  0
LINE
 10
-13.872000
 11
-16.128000
 20
11.529000
 21
11.529000
  0
LINE
 10
-16.128000
 11
-17.953000
 20
11.529000
 21
12.855000
  0
LINE
 10
-17.953000
 11
-18.650000
 20
12.855000
 21
15.000000
  0
LINE
 10
-3.650000
 11
-2.953000
 20
0.000000
 21
2.145000
  0
LINE
 10
-2.953000
 11
-1.128000
 20
2.145000
 21
3.471000
  0
LINE
 10
-1.128000
 11
1.128000
 20
3.471000
 21
3.471000
  0
LINE
 10
1.128000
 11
2.953000
 20
3.471000
 21
2.145000
  0
LINE
 10
2.953000
 11
3.650000
 20
2.145000
 21
0.000000
  0
LINE
 10
3.650000
 11
2.953000
 20
0.000000
 21
-2.145000
  0
LINE
 10
2.953000
 11
1.128000
 20
-2.145000
 21
-3.471000
  0
LINE
 10
1.128000
 11
-1.128000
 20
-3.471000
 21
-3.471000
  0
LINE
 10
-1.128000
 11
-2.953000
 20
-3.471000
 21
-2.145000
  0
LINE
 10
-2.953000
 11
-3.650000
 20
-2.145000
 21
0.000000
  0
LINE
 10
11.350000
 11
12.047000
 20
-15.000000
 21
-12.855000
  0
LINE
 10
12.047000
 11
13.872000
 20
-12.855000
 21
-11.529000
  0
LINE
 10
13.872000
 11
16.128000
 20
-11.529000
 21
-11.529000
  0
LINE
 10
16.128000
 11
17.953000
 20
-11.529000
 21
-12.855000
  0
LINE
 10
17.953000
 11
18.650000
 20
-12.855000
 21
-15.000000
  0
LINE
 10
18.650000
 11
17.953000
 20
-15.000000
 21
-17.145000
  0
LINE
 10
17.953000
 11
16.128000
 20
-17.145000
 21
-18.471000
  0
LINE
 10
16.128000
 11
13.872000
 20
-18.471000
 21
-18.471000
  0
LINE
 10
13.872000
 11
12.047000
 20
-18.471000
 21
-17.145000
  0
LINE
 10
12.047000
 11
11.350000
 20
-17.145000
 21
-15.000000
  0
LINE
 10
11.350000
 11
12.047000
 20
15.000000
 21
17.145000
  0
LINE
 10
12.047000
 11
13.872000
 20
17.145000
 21
18.471000
  0
LINE
 10
13.872000
 11
16.128000
 20
18.471000
 21
18.471000
  0
LINE
 10
16.128000
 11
17.953000
 20
18.471000
 21
17.145000
  0
LINE
 10
17.953000
 11
18.650000
 20
17.145000
 21
15.000000
  0
LINE
 10
18.650000
 11
17.953000
 20
15.000000
 21
12.855000
  0
LINE
 10
17.953000
 11
16.128000
 20
12.855000
 21
11.529000
  0
LINE
 10
16.128000
 11
13.872000
 20
11.529000
 21
11.529000
  0
LINE
 10
13.872000
 11
12.047000
 20
11.529000
 21
12.855000
  0
LINE
 10
12.047000
 11
11.350000
 20
12.855000
 21
15.000000
  0
LINE
 10
24.000000
 11
24.286000
 20
-25.500000
 21
-24.618000
  0
LINE
 10
24.286000
 11
25.036000
 20
-24.618000
 21
-24.073000
  0
LINE
 10
25.036000
 11
25.964000
 20
-24.073000
 21
-24.073000
  0
LINE
 10
25.964000
 11
26.714000
 20
-24.073000
 21
-24.618000
  0
LINE
 10
26.714000
 11
27.000000
 20
-24.618000
 21
-25.500000
  0
LINE
 10
27.000000
 11
26.714000
 20
-25.500000
 21
-26.382000
  0
LINE
 10
26.714000
 11
25.964000
 20
-26.382000
 21
-26.927000
  0
LINE
 10
25.964000
 11
25.036000
 20
-26.927000
 21
-26.927000
  0
LINE
 10
25.036000
 11
24.286000
 20
-26.927000
 21
-26.382000
  0
LINE
 10
24.286000
 11
24.000000
 20
-26.382000
 21
-25.500000
  0
LINE
 10
24.000000
 11
24.286000
 20
25.500000
 21
26.382000
  0
LINE
 10
24.286000
 11
25.036000
 20
26.382000
 21
26.927000
  0
LINE
 10
25.036000
 11
25.964000
 20
26.927000
 21
26.927000
  0
LINE
 10
25.964000
 11
26.714000
 20
26.927000
 21
26.382000
  0
LINE
 10
26.714000
 11
27.000000
 20
26.382000
 21
25.500000
  0
LINE
 10
27.000000
 11
26.714000
 20
25.500000
 21
24.618000
  0
LINE
 10
26.714000
 11
25.964000
 20
24.618000
 21
24.073000
  0
LINE
 10
25.964000
 11
25.036000
 20
24.073000
 21
24.073000
  0
LINE
 10
25.036000
 11
24.286000
 20
24.073000
 21
24.618000
  0
LINE
 10
24.286000
 11
24.000000
 20
24.618000
 21
25.500000
  0
ENDSEC
  0
EOF
